<?xml version="1.0" encoding="utf-8"?>
<!-- Generator: Adobe Illustrator 23.0.2, SVG Export Plug-In . SVG Version: 6.00 Build 0)  -->
<svg version="1.1" id="Camada_1" xmlns="http://www.w3.org/2000/svg" xmlns:xlink="http://www.w3.org/1999/xlink" x="0px" y="0px"
	 viewBox="0 0 90 90" style="enable-background:new 0 0 90 90;" xml:space="preserve">
<style type="text/css">
	.st0{fill:#17BAAC;}
	.st1{fill:#FFFFFF;}
</style>
<circle class="st0" cx="105.1" cy="69.2" r="7.6"/>
<g>
	<path class="st1" d="M102.2,66.8l0,0.8c0.2-0.3,0.4-0.5,0.6-0.7c0.3-0.2,0.6-0.2,0.9-0.2c0.4,0,0.7,0.1,0.9,0.3
		c0.2,0.2,0.4,0.4,0.5,0.8c0.1-0.3,0.4-0.6,0.6-0.8c0.3-0.2,0.6-0.3,1-0.3c0.5,0,0.9,0.2,1.2,0.5c0.3,0.3,0.4,0.9,0.4,1.6v2.8h-0.5
		v-2.8c0-0.6-0.1-1-0.3-1.3c-0.2-0.2-0.5-0.4-0.9-0.4c-0.4,0-0.7,0.1-1,0.4c-0.2,0.3-0.4,0.6-0.4,1c0,0,0,0.1,0,0.1c0,0,0,0.1,0,0.1
		v2.9h-0.5v-2.8c0-0.6-0.1-1-0.3-1.3c-0.2-0.3-0.5-0.4-0.9-0.4c-0.4,0-0.7,0.1-0.9,0.3c-0.2,0.2-0.4,0.5-0.5,0.8v3.4h-0.5v-4.8
		H102.2z"/>
</g>
<circle class="st0" cx="45" cy="45" r="42.1"/>
<g>
	<path class="st1" d="M28.9,31.8l0.3,4.4c0.9-1.6,2-2.8,3.4-3.7c1.4-0.9,3.1-1.3,5.1-1.3c2.1,0,3.8,0.5,5.2,1.5c1.4,1,2.4,2.5,3,4.5
		c0.8-1.9,2-3.4,3.5-4.4c1.5-1.1,3.3-1.6,5.5-1.6c2.9,0,5.1,1,6.6,2.9c1.6,1.9,2.3,4.8,2.3,8.8v15.7h-3V42.9c0-3.3-0.6-5.7-1.7-7
		c-1.2-1.4-2.8-2.1-4.9-2.1c-2.3,0-4.1,0.7-5.3,2.2c-1.3,1.4-2,3.3-2.3,5.5c0,0.1,0,0.3,0,0.5c0,0.2,0,0.4,0,0.5v16.1h-3V42.9
		c0-3.2-0.6-5.6-1.8-7c-1.2-1.4-2.8-2.1-4.9-2.1c-2.1,0-3.8,0.5-5,1.6c-1.2,1.1-2.1,2.5-2.6,4.3v18.9h-3V31.8H28.9z"/>
</g>
</svg>
